<?xml version="1.0" encoding="UTF-8" standalone="no"?>
<!DOCTYPE svg PUBLIC "-//W3C//DTD SVG 1.1//EN"
 "http://www.w3.org/Graphics/SVG/1.1/DTD/svg11.dtd">
<!-- Generated by graphviz version 2.43.0 (0)
 -->
<!-- Title: _93869892232880 Pages: 1 -->
<svg width="1380pt" height="700pt"
 viewBox="0.00 0.00 1380.00 700.00" xmlns="http://www.w3.org/2000/svg" xmlns:xlink="http://www.w3.org/1999/xlink">
<g id="graph0" class="graph" transform="scale(1 1) rotate(0) translate(4 696)">
<title>_93869892232880</title>
<polygon fill="white" stroke="transparent" points="-4,4 -4,-696 1376,-696 1376,4 -4,4"/>
<g id="clust1" class="cluster">
<title>cluster93869892232880diagram</title>
<polygon fill="none" stroke="black" points="8,-8 8,-684 1364,-684 1364,-8 8,-8"/>
<text text-anchor="middle" x="686" y="-668.8" font-family="Times,serif" font-size="14.00">93869892232880</text>
</g>
<g id="clust3" class="cluster">
<title>cluster93869892232880outputports</title>
<polygon fill="lightgrey" stroke="lightgrey" points="699.26,-578 699.26,-653 877.74,-653 877.74,-578 699.26,-578"/>
<text text-anchor="middle" x="788.5" y="-637.8" font-family="Times,serif" font-size="14.00">output ports</text>
</g>
<g id="clust4" class="cluster">
<title>cluster93869892232880subsystems</title>
<polygon fill="none" stroke="white" points="16,-16 16,-570 1356,-570 1356,-16 16,-16"/>
</g>
<!-- _93869892232880_y0 -->
<g id="node1" class="node">
<title>_93869892232880_y0</title>
<ellipse fill="none" stroke="green" cx="788.5" cy="-604" rx="81.49" ry="18"/>
<text text-anchor="middle" x="788.5" y="-600.3" font-family="Times,serif" font-size="14.00">contact_results</text>
</g>
<!-- 93869891534336 -->
<g id="node2" class="node">
<title>93869891534336</title>
<polygon fill="none" stroke="black" points="24,-78.5 24,-561.5 646,-561.5 646,-78.5 24,-78.5"/>
<text text-anchor="middle" x="335" y="-546.3" font-family="Times,serif" font-size="14.00">plant</text>
<polyline fill="none" stroke="black" points="24,-538.5 646,-538.5 "/>
<text text-anchor="middle" x="148" y="-506.3" font-family="Times,serif" font-size="14.00">geometry_query</text>
<polyline fill="none" stroke="black" points="24,-481.5 272,-481.5 "/>
<text text-anchor="middle" x="148" y="-448.8" font-family="Times,serif" font-size="14.00">WorldModelInstance_actuation</text>
<polyline fill="none" stroke="black" points="24,-423.5 272,-423.5 "/>
<text text-anchor="middle" x="148" y="-391.3" font-family="Times,serif" font-size="14.00">DefaultModelInstance_actuation</text>
<polyline fill="none" stroke="black" points="24,-366.5 272,-366.5 "/>
<text text-anchor="middle" x="148" y="-333.8" font-family="Times,serif" font-size="14.00">model1_body_link_actuation</text>
<polyline fill="none" stroke="black" points="24,-308.5 272,-308.5 "/>
<text text-anchor="middle" x="148" y="-276.3" font-family="Times,serif" font-size="14.00">model1_nut_body_link_actuation</text>
<polyline fill="none" stroke="black" points="24,-251.5 272,-251.5 "/>
<text text-anchor="middle" x="148" y="-218.8" font-family="Times,serif" font-size="14.00">actuation</text>
<polyline fill="none" stroke="black" points="24,-193.5 272,-193.5 "/>
<text text-anchor="middle" x="148" y="-161.3" font-family="Times,serif" font-size="14.00">applied_generalized_force</text>
<polyline fill="none" stroke="black" points="24,-136.5 272,-136.5 "/>
<text text-anchor="middle" x="148" y="-103.8" font-family="Times,serif" font-size="14.00">applied_spatial_force</text>
<polyline fill="none" stroke="black" points="272,-78.5 272,-538.5 "/>
<text text-anchor="middle" x="459" y="-523.3" font-family="Times,serif" font-size="14.00">geometry_pose</text>
<polyline fill="none" stroke="black" points="272,-515.5 646,-515.5 "/>
<text text-anchor="middle" x="459" y="-500.3" font-family="Times,serif" font-size="14.00">continuous_state</text>
<polyline fill="none" stroke="black" points="272,-492.5 646,-492.5 "/>
<text text-anchor="middle" x="459" y="-477.3" font-family="Times,serif" font-size="14.00">body_poses</text>
<polyline fill="none" stroke="black" points="272,-469.5 646,-469.5 "/>
<text text-anchor="middle" x="459" y="-454.3" font-family="Times,serif" font-size="14.00">spatial_velocities</text>
<polyline fill="none" stroke="black" points="272,-446.5 646,-446.5 "/>
<text text-anchor="middle" x="459" y="-431.3" font-family="Times,serif" font-size="14.00">spatial_accelerations</text>
<polyline fill="none" stroke="black" points="272,-423.5 646,-423.5 "/>
<text text-anchor="middle" x="459" y="-408.3" font-family="Times,serif" font-size="14.00">generalized_acceleration</text>
<polyline fill="none" stroke="black" points="272,-400.5 646,-400.5 "/>
<text text-anchor="middle" x="459" y="-385.3" font-family="Times,serif" font-size="14.00">WorldModelInstance_continuous_state</text>
<polyline fill="none" stroke="black" points="272,-377.5 646,-377.5 "/>
<text text-anchor="middle" x="459" y="-362.3" font-family="Times,serif" font-size="14.00">WorldModelInstance_generalized_acceleration</text>
<polyline fill="none" stroke="black" points="272,-354.5 646,-354.5 "/>
<text text-anchor="middle" x="459" y="-339.3" font-family="Times,serif" font-size="14.00">DefaultModelInstance_continuous_state</text>
<polyline fill="none" stroke="black" points="272,-331.5 646,-331.5 "/>
<text text-anchor="middle" x="459" y="-316.3" font-family="Times,serif" font-size="14.00">DefaultModelInstance_generalized_acceleration</text>
<polyline fill="none" stroke="black" points="272,-308.5 646,-308.5 "/>
<text text-anchor="middle" x="459" y="-293.3" font-family="Times,serif" font-size="14.00">model1_body_link_continuous_state</text>
<polyline fill="none" stroke="black" points="272,-285.5 646,-285.5 "/>
<text text-anchor="middle" x="459" y="-270.3" font-family="Times,serif" font-size="14.00">model1_body_link_generalized_acceleration</text>
<polyline fill="none" stroke="black" points="272,-262.5 646,-262.5 "/>
<text text-anchor="middle" x="459" y="-247.3" font-family="Times,serif" font-size="14.00">model1_nut_body_link_continuous_state</text>
<polyline fill="none" stroke="black" points="272,-239.5 646,-239.5 "/>
<text text-anchor="middle" x="459" y="-224.3" font-family="Times,serif" font-size="14.00">model1_nut_body_link_generalized_acceleration</text>
<polyline fill="none" stroke="black" points="272,-216.5 646,-216.5 "/>
<text text-anchor="middle" x="459" y="-201.3" font-family="Times,serif" font-size="14.00">WorldModelInstance_generalized_contact_forces</text>
<polyline fill="none" stroke="black" points="272,-193.5 646,-193.5 "/>
<text text-anchor="middle" x="459" y="-178.3" font-family="Times,serif" font-size="14.00">DefaultModelInstance_generalized_contact_forces</text>
<polyline fill="none" stroke="black" points="272,-170.5 646,-170.5 "/>
<text text-anchor="middle" x="459" y="-155.3" font-family="Times,serif" font-size="14.00">model1_body_link_generalized_contact_forces</text>
<polyline fill="none" stroke="black" points="272,-147.5 646,-147.5 "/>
<text text-anchor="middle" x="459" y="-132.3" font-family="Times,serif" font-size="14.00">model1_nut_body_link_generalized_contact_forces</text>
<polyline fill="none" stroke="black" points="272,-124.5 646,-124.5 "/>
<text text-anchor="middle" x="459" y="-109.3" font-family="Times,serif" font-size="14.00">reaction_forces</text>
<polyline fill="none" stroke="black" points="272,-101.5 646,-101.5 "/>
<text text-anchor="middle" x="459" y="-86.3" font-family="Times,serif" font-size="14.00">contact_results</text>
</g>
<!-- 93869891534336&#45;&gt;_93869892232880_y0 -->
<g id="edge4" class="edge">
<title>93869891534336:y19&#45;&gt;_93869892232880_y0</title>
<path fill="none" stroke="green" d="M646,-90C699.93,-90 647.92,-532.2 682,-574 688.41,-581.86 696.71,-587.75 705.85,-592.14"/>
<polygon fill="green" stroke="green" points="704.65,-595.43 715.23,-596.06 707.35,-588.98 704.65,-595.43"/>
</g>
<!-- 93869891536192 -->
<g id="node3" class="node">
<title>93869891536192</title>
<polygon fill="none" stroke="black" points="682,-489.5 682,-558.5 895,-558.5 895,-489.5 682,-489.5"/>
<text text-anchor="middle" x="788.5" y="-543.3" font-family="Times,serif" font-size="14.00">scene_graph</text>
<polyline fill="none" stroke="black" points="682,-535.5 895,-535.5 "/>
<text text-anchor="middle" x="759.5" y="-520.3" font-family="Times,serif" font-size="14.00">plant_pose</text>
<polyline fill="none" stroke="black" points="682,-512.5 837,-512.5 "/>
<text text-anchor="middle" x="759.5" y="-497.3" font-family="Times,serif" font-size="14.00">plant_configuration</text>
<polyline fill="none" stroke="black" points="837,-489.5 837,-535.5 "/>
<text text-anchor="middle" x="866" y="-508.8" font-family="Times,serif" font-size="14.00">query</text>
</g>
<!-- 93869891534336&#45;&gt;93869891536192 -->
<g id="edge2" class="edge">
<title>93869891534336:y0&#45;&gt;93869891536192:u0</title>
<path fill="none" stroke="black" d="M646,-527C658.04,-527 663.24,-525.31 671.86,-524.47"/>
<polygon fill="black" stroke="black" points="672.17,-527.96 682,-524 671.85,-520.97 672.17,-527.96"/>
</g>
<!-- 93869891536192&#45;&gt;93869891534336 -->
<g id="edge1" class="edge">
<title>93869891536192:y0&#45;&gt;93869891534336:u0</title>
<path fill="none" stroke="black" d="M866.5,-488C866.5,-406 751.52,-445.51 682,-489 651.33,-508.19 676.72,-542.9 646,-562 528.62,-634.99 122.67,-658.79 24,-562 10.46,-548.72 2.91,-522.24 13.39,-513.15"/>
<polygon fill="black" stroke="black" points="14.59,-516.44 23,-510 12.41,-509.79 14.59,-516.44"/>
</g>
<!-- 93869901801072 -->
<g id="node4" class="node">
<title>93869901801072</title>
<polygon fill="none" stroke="black" points="931,-501 931,-547 1348,-547 1348,-501 931,-501"/>
<text text-anchor="middle" x="1139.5" y="-531.8" font-family="Times,serif" font-size="14.00">drake/geometry/MeshcatVisualizer@0000555fca26e670</text>
<polyline fill="none" stroke="black" points="931,-524 1348,-524 "/>
<text text-anchor="middle" x="1057" y="-508.8" font-family="Times,serif" font-size="14.00">query_object</text>
<polyline fill="none" stroke="black" points="1183,-501 1183,-524 "/>
<text text-anchor="middle" x="1265.5" y="-508.8" font-family="Times,serif" font-size="14.00"> </text>
</g>
<!-- 93869891536192&#45;&gt;93869901801072 -->
<g id="edge3" class="edge">
<title>93869891536192:y0&#45;&gt;93869901801072:u0</title>
<path fill="none" stroke="black" d="M895,-512C907,-512 912.25,-512 920.88,-512"/>
<polygon fill="black" stroke="black" points="921,-515.5 931,-512 921,-508.5 921,-515.5"/>
</g>
<!-- \n -->
<g id="node5" class="node">
<title>\n</title>
<ellipse fill="none" stroke="black" cx="335" cy="-42" rx="27" ry="18"/>
</g>
</g>
</svg>
